<?xml version="1.0" encoding="UTF-8" standalone="no"?>
<!-- Created with Inkscape (http://www.inkscape.org/) -->

<svg
   xmlns:dc="http://purl.org/dc/elements/1.1/"
   xmlns:cc="http://creativecommons.org/ns#"
   xmlns:rdf="http://www.w3.org/1999/02/22-rdf-syntax-ns#"
   xmlns:svg="http://www.w3.org/2000/svg"
   xmlns="http://www.w3.org/2000/svg"
   xmlns:sodipodi="http://sodipodi.sourceforge.net/DTD/sodipodi-0.dtd"
   xmlns:inkscape="http://www.inkscape.org/namespaces/inkscape"
   version="1.1"
   id="svg2"
   xml:space="preserve"
   width="59.311199"
   height="100.14187"
   viewBox="0 0 59.311199 100.14187"
   sodipodi:docname="logo-intro.svg"
   inkscape:version="0.92.1 r15371"><metadata
     id="metadata8"><rdf:RDF><cc:Work
         rdf:about=""><dc:format>image/svg+xml</dc:format><dc:type
           rdf:resource="http://purl.org/dc/dcmitype/StillImage" /><dc:title></dc:title></cc:Work></rdf:RDF></metadata><defs
     id="defs6"><clipPath
       clipPathUnits="userSpaceOnUse"
       id="clipPath18"><path
         d="M 0,75.106 H 44.483 V 0 H 0 Z"
         id="path16"
         inkscape:connector-curvature="0" /></clipPath></defs><sodipodi:namedview
     pagecolor="#ffffff"
     bordercolor="#666666"
     borderopacity="1"
     objecttolerance="10"
     gridtolerance="10"
     guidetolerance="10"
     inkscape:pageopacity="0"
     inkscape:pageshadow="2"
     inkscape:window-width="1600"
     inkscape:window-height="837"
     id="namedview4"
     showgrid="false"
     inkscape:zoom="2.3566566"
     inkscape:cx="-15.747705"
     inkscape:cy="50.070934"
     inkscape:window-x="-8"
     inkscape:window-y="-8"
     inkscape:window-maximized="1"
     inkscape:current-layer="g10" /><g
     id="g10"
     inkscape:groupmode="layer"
     inkscape:label="Vector Smart Object"
     transform="matrix(1.3333333,0,0,-1.3333333,0,100.14187)"><g
       id="g12"><g
         id="g14"
         clip-path="url(#clipPath18)"><g
           id="g20"
           transform="translate(3.002,18.2441)"><path
             d="M 0,0 H 2.133 L 1.332,2.595 C 1.308,2.674 1.273,2.801 1.23,2.977 1.187,3.151 1.132,3.377 1.064,3.652 1.018,3.459 0.972,3.275 0.927,3.1 0.882,2.924 0.837,2.756 0.79,2.595 Z m -3.002,-2.938 2.713,7.864 H 2.396 L 5.113,-2.938 H 2.981 L 2.584,-1.53 h -3.045 l -0.408,-1.408 z"
             style="fill:#231f20;fill-opacity:1;fill-rule:nonzero;stroke:none"
             id="path22"
             inkscape:connector-curvature="0" /></g><path
           d="m 21.638,23.17 h 2.165 v -7.863 h -2.165 z"
           style="fill:#231f20;fill-opacity:1;fill-rule:nonzero;stroke:none"
           id="path24"
           inkscape:connector-curvature="0" /><g
           id="g26"
           transform="translate(40.2559,19.4531)"><path
             d="m 0,0 h 0.397 c 0.462,0 0.8,0.079 1.013,0.236 0.213,0.158 0.319,0.405 0.319,0.742 0,0.393 -0.099,0.673 -0.297,0.84 -0.2,0.166 -0.534,0.25 -1.002,0.25 H 0 Z m -2.009,-4.146 v 7.863 h 2.24 C 1.108,3.717 1.72,3.677 2.065,3.596 2.411,3.516 2.709,3.38 2.96,3.19 3.242,2.976 3.46,2.701 3.612,2.369 3.765,2.035 3.841,1.669 3.841,1.268 3.841,0.659 3.69,0.164 3.392,-0.218 3.093,-0.599 2.657,-0.853 2.084,-0.978 L 4.228,-4.146 H 1.805 L 0,-1.068 v -3.078 z"
             style="fill:#231f20;fill-opacity:1;fill-rule:nonzero;stroke:none"
             id="path28"
             inkscape:connector-curvature="0" /></g><g
           id="g30"
           transform="translate(1.9443,4.6836)"><path
             d="M 0,0 H 0.473 C 1.274,0 1.814,0.095 2.092,0.282 2.369,0.471 2.509,0.799 2.509,1.268 2.509,1.77 2.366,2.122 2.081,2.326 1.797,2.53 1.261,2.633 0.473,2.633 H 0 Z m 0,-0.848 v -3.529 h -0.913 v 7.863 h 1.648 c 0.577,0 1.001,-0.03 1.274,-0.091 C 2.281,3.334 2.518,3.234 2.718,3.094 2.969,2.915 3.164,2.67 3.306,2.358 3.447,2.047 3.519,1.701 3.519,1.322 3.519,0.942 3.447,0.597 3.306,0.285 3.164,-0.026 2.969,-0.271 2.718,-0.451 2.518,-0.594 2.282,-0.696 2.012,-0.757 1.741,-0.817 1.315,-0.848 0.735,-0.848 H 0.473 Z"
             style="fill:#231f20;fill-opacity:1;fill-rule:nonzero;stroke:none"
             id="path32"
             inkscape:connector-curvature="0" /></g><g
           id="g34"
           transform="translate(8.0029,0.3066)"><path
             d="M 0,0 V 7.863 H 0.935 V 0.892 H 3.904 V 0 Z"
             style="fill:#231f20;fill-opacity:1;fill-rule:nonzero;stroke:none"
             id="path36"
             inkscape:connector-curvature="0" /></g><g
           id="g38"
           transform="translate(16.8926,6.4141)"><path
             d="M 0,0 -1.251,-2.896 H 1.252 Z M 0,2.067 3.578,-6.107 H 2.563 L 1.542,-3.695 H -1.53 l -1.021,-2.412 h -1.015 z"
             style="fill:#231f20;fill-opacity:1;fill-rule:nonzero;stroke:none"
             id="path40"
             inkscape:connector-curvature="0" /></g><g
           id="g42"
           transform="translate(22.667,0.3066)"><path
             d="M 0,0 V 8.175 L 5.752,1.891 v 5.972 h 0.893 v -8.17 L 0.892,5.908 V 0 Z"
             style="fill:#231f20;fill-opacity:1;fill-rule:nonzero;stroke:none"
             id="path44"
             inkscape:connector-curvature="0" /></g><g
           id="g46"
           transform="translate(32.5771,0.3066)"><path
             d="M 0,0 V 7.863 H 4.146 V 7.01 H 0.935 V 4.754 H 4.146 V 3.883 H 0.935 V 0.87 H 4.146 V 0 Z"
             style="fill:#231f20;fill-opacity:1;fill-rule:nonzero;stroke:none"
             id="path48"
             inkscape:connector-curvature="0" /></g><g
           id="g50"
           transform="translate(41.0684,0.3066)"><path
             d="M 0,0 V 6.972 H -2.224 V 7.863 H 3.158 V 6.972 H 0.945 L 0.945,0 Z"
             style="fill:#231f20;fill-opacity:1;fill-rule:nonzero;stroke:none"
             id="path52"
             inkscape:connector-curvature="0" /></g><g
           id="g54"
           transform="translate(15.8711,19.2227)"><path
             d="m 0,0 c 0,-0.853 -0.688,-1.541 -1.541,-1.541 -0.853,0 -1.541,0.688 -1.541,1.541 0,0.853 0.688,1.541 1.541,1.541 C -0.688,1.541 0,0.853 0,0"
             style="fill:#231f20;fill-opacity:1;fill-rule:nonzero;stroke:none"
             id="path56"
             inkscape:connector-curvature="0" /></g><g
           id="g58"
           transform="translate(32.4551,19.2227)"><path
             d="m 0,0 c 0,-0.853 -0.688,-1.541 -1.541,-1.541 -0.853,0 -1.541,0.688 -1.541,1.541 0,0.853 0.688,1.541 1.541,1.541 C -0.688,1.541 0,0.853 0,0"
             style="fill:#231f20;fill-opacity:1;fill-rule:nonzero;stroke:none"
             id="path60"
             inkscape:connector-curvature="0" /></g><g
           id="g62"
           transform="translate(21.3848,38.7051)"><path
             d="m 0,0 c -11.579,2.327 -19.194,13.029 -17.01,23.905 0.548,2.721 1.656,5.195 3.195,7.337 -4.481,-4.023 -7.301,-9.859 -7.301,-16.354 0,-12.143 9.841,-21.983 21.983,-21.983 9.842,0 18.173,6.472 20.974,15.39 C 17.263,1.771 8.754,-1.76 0,0"
             style="fill:#37b2f7;fill-opacity:1;fill-rule:nonzero;stroke:none"
             id="path64"
             inkscape:connector-curvature="0" /></g><g
           id="g66"
           transform="translate(39.4395,56.1738)"><path
             d="m 0,0 c -2.771,-5.467 -10.424,-7.154 -17.093,-3.773 -6.669,3.382 -9.826,10.555 -7.052,16.021 2.771,5.469 10.426,7.156 17.092,3.775 C -0.383,12.641 2.774,5.468 0,0 m -8.018,17.01 c -10.045,4.275 -20.98,1.182 -24.42,-6.903 C -35.876,2.019 -30.521,-8 -20.477,-12.275 -10.43,-16.548 0.505,-13.457 3.945,-5.37 7.383,2.717 2.027,12.737 -8.018,17.01"
             style="fill:#37b2f7;fill-opacity:1;fill-rule:nonzero;stroke:none"
             id="path68"
             inkscape:connector-curvature="0" /></g><g
           id="g70"
           transform="translate(32.0781,71.0146)"><path
             d="m 0,0 c -4.77,2.417 -10.243,1.21 -12.226,-2.698 -1.982,-3.91 0.274,-9.04 5.043,-11.459 4.77,-2.418 10.244,-1.211 12.227,2.7 C 7.026,-7.547 4.768,-2.421 0,0"
             style="fill:#37b2f7;fill-opacity:1;fill-rule:nonzero;stroke:none"
             id="path72"
             inkscape:connector-curvature="0" /></g></g></g></g></svg>