<?xml version="1.0" standalone="no"?>
<!DOCTYPE svg PUBLIC "-//W3C//DTD SVG 20010904//EN"
 "http://www.w3.org/TR/2001/REC-SVG-20010904/DTD/svg10.dtd">
<svg version="1.0" xmlns="http://www.w3.org/2000/svg"
 width="944.000000pt" height="944.000000pt" viewBox="0 0 944.000000 944.000000"
 preserveAspectRatio="xMidYMid meet">
<metadata>
Created by potrace 1.11, written by Peter Selinger 2001-2013
</metadata>
<g transform="translate(0.000000,944.000000) scale(0.100000,-0.100000)"
fill="#000000" stroke="none">
<path d="M4448 9355 c-2 -2 -52 -6 -112 -10 -61 -3 -112 -8 -115 -10 -4 -1
-40 -6 -81 -10 -80 -8 -115 -12 -115 -15 0 -1 -11 -3 -25 -5 -23 -3 -72 -11
-125 -20 -11 -2 -41 -8 -68 -14 -26 -6 -64 -14 -85 -17 -20 -3 -40 -8 -44 -11
-5 -2 -17 -6 -28 -9 -11 -2 -28 -6 -37 -8 -52 -11 -205 -57 -250 -74 -29 -11
-53 -18 -53 -16 0 3 -13 -2 -29 -10 -16 -9 -31 -12 -35 -9 -3 4 -6 1 -6 -6 0
-7 -4 -10 -8 -7 -5 3 -19 -1 -33 -7 -13 -7 -46 -21 -74 -31 -27 -11 -79 -33
-115 -49 -36 -17 -67 -31 -70 -32 -10 -2 -167 -84 -228 -119 -35 -20 -66 -36
-68 -36 -3 0 -10 -5 -17 -10 -7 -6 -54 -37 -106 -71 -52 -33 -100 -67 -108
-75 -8 -8 -18 -14 -22 -14 -5 0 -20 -12 -35 -26 -14 -15 -26 -23 -26 -18 0 5
-4 4 -8 -2 -4 -6 -47 -45 -97 -86 -174 -145 -352 -336 -470 -502 -11 -16 -29
-40 -40 -55 -33 -42 -75 -110 -75 -120 0 -6 -6 -14 -12 -18 -7 -4 -22 -24 -32
-43 -32 -60 -166 -328 -166 -334 0 -2 -5 -17 -12 -33 -6 -15 -12 -32 -14 -38
-1 -5 -16 -47 -33 -92 -16 -46 -28 -83 -25 -83 3 0 -1 -10 -7 -22 -13 -24 -64
-232 -72 -289 -2 -20 -7 -41 -10 -45 -3 -5 -8 -36 -11 -69 -3 -33 -8 -71 -11
-84 -7 -39 -16 -218 -16 -331 0 -117 14 -345 21 -345 0 0 3 -18 5 -40 4 -49
20 -156 30 -204 2 -9 11 -52 20 -96 10 -44 20 -87 23 -95 3 -8 6 -18 7 -22 2
-5 3 -9 4 -10 2 -2 4 -14 7 -28 3 -20 50 -171 80 -260 3 -8 5 -17 6 -20 0 -3
6 -16 13 -30 20 -38 60 -144 57 -152 -1 -5 3 -8 8 -8 6 0 10 -5 10 -10 0 -6 9
-30 20 -52 11 -23 20 -47 20 -54 0 -7 4 -14 9 -16 8 -3 50 -92 50 -105 -1 -3
3 -9 8 -12 4 -3 17 -24 29 -46 11 -22 31 -57 42 -77 12 -21 31 -55 43 -75 11
-20 38 -62 60 -94 21 -32 39 -62 39 -68 0 -5 3 -11 8 -13 4 -1 27 -32 51 -68
49 -70 169 -232 180 -240 4 -3 22 -25 41 -50 19 -24 42 -52 50 -61 8 -8 44
-48 80 -88 55 -61 240 -248 314 -316 100 -94 405 -340 436 -353 8 -3 20 -11
25 -17 15 -17 223 -155 234 -155 5 0 11 -3 13 -7 4 -11 174 -113 187 -113 5 0
11 -3 13 -7 3 -9 25 -20 235 -128 78 -40 145 -70 148 -67 3 3 5 -1 5 -8 0 -7
3 -11 6 -8 3 3 37 -9 75 -28 38 -19 74 -34 79 -34 6 0 18 -4 28 -10 37 -21
235 -97 302 -116 8 -2 62 -20 120 -39 58 -20 112 -37 120 -39 8 -2 22 -6 30
-9 17 -7 290 -75 329 -82 14 -3 37 -7 51 -10 31 -7 123 -24 170 -31 19 -2 58
-9 85 -14 28 -5 70 -11 95 -14 25 -3 61 -7 80 -10 35 -5 92 -10 250 -22 203
-16 631 -5 805 20 22 3 67 8 100 12 33 3 62 8 65 9 6 4 82 16 120 20 14 1 36
6 50 10 14 5 36 9 50 11 14 1 25 3 25 4 0 1 11 3 25 6 86 14 361 95 510 149
112 41 350 143 360 154 3 3 39 23 80 44 342 171 718 475 955 772 17 21 41 52
55 69 14 17 44 58 65 91 22 33 43 64 48 70 18 25 57 86 57 91 0 3 9 19 20 34
29 41 160 305 160 323 0 9 4 18 9 21 5 3 11 16 15 29 3 13 13 41 23 63 9 21
17 41 18 44 4 28 30 108 38 118 5 6 7 12 3 12 -3 0 -1 12 5 28 13 31 21 69 23
95 0 9 5 17 10 17 5 0 7 3 4 6 -4 3 -2 20 3 37 5 18 12 48 15 67 3 19 7 42 9
50 2 8 7 38 11 65 3 28 8 59 10 69 25 131 24 631 -1 750 -2 12 -7 39 -10 61
-9 70 -15 109 -26 155 -5 25 -11 54 -13 65 -12 59 -28 125 -41 165 -8 25 -16
54 -18 65 -2 11 -6 27 -9 35 -3 8 -20 56 -36 105 -17 50 -36 104 -43 120 -7
17 -13 33 -14 38 -2 4 -4 9 -5 12 -1 3 -3 8 -4 13 -1 4 -12 29 -24 56 -12 27
-22 50 -22 53 0 6 -138 283 -171 341 -76 137 -267 427 -314 476 -6 6 -22 27
-35 46 -13 19 -29 40 -35 46 -6 6 -27 30 -46 54 -18 23 -45 55 -59 71 -14 15
-43 49 -65 74 -43 49 -204 212 -282 286 -98 92 -318 279 -328 279 -4 0 -15 8
-24 18 -16 19 -51 44 -241 174 -122 84 -240 159 -240 152 0 -3 -10 4 -22 16
-12 11 -27 20 -34 20 -7 0 -14 3 -16 8 -7 15 -381 206 -523 266 -49 21 -106
45 -125 53 -59 25 -104 43 -125 49 -5 1 -46 17 -90 34 -44 17 -87 32 -95 34
-8 2 -23 6 -32 10 -9 4 -25 9 -35 11 -10 2 -19 4 -20 5 -2 2 -6 3 -10 4 -31 8
-102 30 -118 36 -37 15 -347 92 -425 105 -14 2 -41 7 -60 10 -19 4 -44 8 -55
10 -64 12 -155 27 -190 31 -22 2 -53 6 -70 8 -16 2 -64 7 -105 11 -41 4 -88 9
-105 12 -32 5 -602 13 -607 8z m1222 -260 c19 -3 51 -8 70 -10 34 -3 103 -13
145 -20 11 -2 65 -13 120 -25 55 -12 109 -23 120 -25 11 -2 20 -4 20 -5 0 -1
11 -3 25 -6 14 -2 32 -7 40 -11 8 -3 23 -8 32 -9 13 -3 153 -48 246 -79 7 -3
13 -4 15 -3 1 1 16 -5 32 -14 17 -9 53 -26 82 -37 28 -12 64 -26 80 -33 15 -6
30 -12 33 -13 19 -5 126 -61 128 -67 2 -5 12 -8 23 -8 10 0 19 -5 19 -10 0 -6
3 -9 8 -8 7 2 51 -20 97 -49 11 -7 29 -16 40 -22 21 -10 172 -104 190 -118 6
-4 39 -28 75 -52 36 -25 67 -47 70 -51 3 -3 23 -18 45 -35 189 -140 438 -387
585 -580 16 -22 37 -49 46 -60 9 -11 47 -67 85 -125 38 -58 72 -109 77 -115
43 -58 172 -332 221 -470 18 -49 36 -100 41 -111 13 -34 67 -262 79 -339 20
-124 22 -147 25 -325 4 -226 -18 -408 -73 -588 -5 -18 -11 -36 -12 -40 -2 -9
-5 -17 -22 -72 -17 -50 -29 -81 -63 -158 -13 -28 -23 -54 -21 -56 1 -1 -3 -9
-10 -17 -6 -8 -26 -41 -44 -74 -32 -60 -118 -195 -129 -205 -3 -3 -17 -21 -30
-40 -93 -134 -311 -337 -490 -456 -109 -73 -292 -174 -315 -174 -6 0 -16 -5
-23 -12 -6 -6 -18 -13 -26 -14 -7 -1 -29 -9 -47 -18 -35 -16 -232 -85 -259
-91 -8 -2 -44 -11 -80 -20 -74 -19 -91 -23 -140 -31 -19 -3 -53 -9 -75 -14
-22 -5 -67 -12 -100 -15 -33 -4 -68 -9 -77 -11 -10 -3 -73 -7 -140 -9 -68 -3
-123 -5 -123 -6 0 0 -15 -1 -33 -2 -17 -1 -32 1 -32 5 0 4 -11 3 -24 -2 -13
-5 -26 -7 -28 -4 -3 2 -54 6 -114 9 -60 3 -125 8 -144 11 -19 3 -48 7 -65 8
-69 8 -192 28 -245 40 -61 14 -86 19 -105 22 -26 3 -247 67 -305 89 -25 8 -52
17 -60 20 -15 3 -47 15 -97 37 -16 6 -33 12 -39 14 -7 1 -36 14 -65 29 -30 15
-54 25 -54 24 0 -9 -251 121 -353 182 -64 38 -117 69 -119 69 -2 0 -9 5 -16
10 -7 6 -50 37 -97 70 -102 72 -130 92 -144 105 -6 6 -24 21 -41 33 -71 54
-127 105 -255 232 -149 149 -163 164 -266 295 -169 215 -314 465 -409 705 -20
52 -43 110 -51 128 -8 18 -12 38 -9 43 4 5 1 9 -5 9 -7 0 -10 6 -7 13 2 6 -1
23 -8 37 -7 14 -15 39 -18 55 -3 17 -9 48 -15 70 -6 22 -13 52 -16 68 -3 15
-7 35 -10 45 -3 9 -7 37 -10 62 -3 25 -8 56 -11 70 -5 24 -13 135 -18 233 -1
26 1 47 5 47 4 0 4 10 0 23 -7 20 -8 44 -2 57 1 3 3 34 4 70 3 61 12 146 22
194 2 12 7 35 9 51 8 43 43 177 54 207 5 14 7 29 4 32 -4 3 0 6 7 6 7 0 11 3
7 6 -6 6 23 92 43 126 6 10 10 25 10 33 0 8 5 15 12 15 6 0 9 3 5 6 -9 9 87
187 155 289 105 156 187 249 358 405 42 38 223 171 265 194 17 9 53 30 80 46
168 99 405 193 619 246 137 34 296 61 389 68 26 1 50 5 53 8 7 8 531 1 574 -7z"/>
<path d="M5539 8746 c-2 -2 -31 -6 -64 -10 -33 -3 -73 -8 -90 -11 -16 -3 -55
-10 -85 -15 -127 -23 -447 -136 -458 -162 -2 -4 -10 -8 -18 -8 -19 0 -165 -93
-244 -156 -123 -97 -234 -217 -312 -339 -68 -105 -82 -129 -84 -140 -2 -5 -19
-47 -39 -93 -20 -46 -38 -89 -39 -95 -2 -7 -9 -32 -16 -57 -17 -58 -17 -58
-25 -105 -4 -22 -9 -43 -11 -47 -8 -13 -18 -156 -18 -258 0 -157 20 -297 58
-422 8 -27 12 -48 9 -48 -3 0 1 -7 8 -17 8 -9 13 -18 12 -19 -10 -14 133 -342
158 -364 3 -3 20 -30 37 -61 63 -112 225 -314 330 -413 116 -110 140 -130 172
-155 19 -14 37 -29 40 -32 3 -3 50 -37 105 -75 55 -37 103 -73 107 -79 4 -5 8
-6 8 -2 0 4 19 -5 43 -21 65 -44 280 -145 407 -192 104 -38 145 -53 145 -51 0
1 34 -8 75 -20 41 -12 89 -23 105 -25 17 -3 37 -7 45 -10 8 -3 33 -8 55 -10
22 -3 47 -8 55 -11 16 -5 83 -12 160 -17 25 -1 50 -4 55 -7 6 -3 26 -4 45 -3
68 5 85 5 123 2 21 -2 41 0 43 4 3 4 16 3 29 -2 14 -5 25 -6 25 -2 0 4 15 8
33 8 36 1 127 11 170 19 144 27 250 55 346 92 84 32 281 125 281 132 0 4 12
12 28 19 29 13 167 113 193 140 9 9 36 35 60 58 86 80 239 278 239 311 0 7 4
13 9 13 10 0 70 130 105 230 14 41 37 127 50 190 21 102 23 136 21 300 -3 178
-5 202 -21 280 -4 19 -8 40 -10 46 -30 150 -166 485 -228 564 -7 8 -17 26 -24
40 -18 35 -140 200 -198 267 -107 124 -243 250 -379 351 -38 28 -75 56 -82 62
-7 5 -15 10 -19 10 -4 0 -21 10 -38 23 -17 13 -58 39 -91 57 -33 19 -61 37
-63 42 -2 4 -10 8 -18 8 -8 0 -32 11 -54 25 -22 14 -43 25 -48 25 -5 0 -37 14
-73 31 -35 17 -68 32 -74 33 -5 1 -14 4 -20 7 -17 11 -120 43 -127 41 -5 -1
-8 2 -8 6 0 5 -6 9 -12 10 -7 0 -62 14 -123 31 -60 17 -126 34 -145 36 -19 3
-42 7 -50 9 -8 1 -37 6 -65 10 -27 4 -61 10 -75 13 -28 6 -436 14 -441 9z"/>
<path d="M1489 8192 c-20 -20 -58 -58 -85 -83 -57 -54 -219 -228 -260 -279
-16 -19 -32 -37 -35 -40 -4 -3 -39 -45 -78 -95 -39 -49 -77 -97 -84 -105 -38
-48 -67 -90 -67 -98 0 -6 -4 -12 -8 -14 -13 -5 -83 -107 -166 -239 -72 -117
-103 -171 -178 -319 -35 -69 -66 -126 -70 -128 -5 -2 -8 -8 -8 -14 0 -6 -11
-34 -24 -62 -87 -184 -213 -530 -262 -718 -1 -5 -3 -10 -4 -13 -1 -3 -4 -14
-5 -25 -1 -11 -3 -21 -5 -22 -4 -6 -55 -231 -65 -288 -3 -19 -8 -42 -10 -50
-4 -17 -15 -79 -21 -127 -6 -52 -12 -95 -18 -138 -37 -258 -42 -809 -11 -1056
3 -19 7 -54 10 -79 3 -25 8 -61 11 -80 2 -19 7 -53 9 -75 3 -22 10 -62 16 -90
5 -27 12 -63 15 -80 5 -41 9 -57 34 -160 12 -49 24 -101 26 -115 3 -14 8 -36
13 -50 5 -14 19 -63 32 -110 12 -47 26 -93 31 -103 5 -10 11 -26 13 -35 5 -22
62 -185 85 -242 20 -50 33 -82 35 -90 0 -3 10 -25 21 -50 12 -25 38 -83 60
-130 21 -47 42 -88 47 -91 5 -3 8 -9 8 -13 -1 -3 20 -48 46 -99 26 -50 50 -96
52 -102 2 -5 7 -12 10 -15 6 -5 13 -17 59 -99 14 -25 49 -83 79 -128 29 -46
53 -86 53 -91 0 -4 9 -14 20 -22 11 -8 20 -19 20 -25 0 -5 11 -23 25 -39 14
-16 25 -32 25 -35 0 -5 17 -28 60 -78 5 -7 10 -16 10 -22 0 -5 3 -11 8 -13 4
-1 30 -31 57 -66 50 -64 57 -71 130 -157 100 -117 276 -297 383 -392 41 -38
80 -72 86 -78 41 -37 97 -84 125 -105 19 -14 39 -30 45 -36 6 -6 58 -45 116
-88 58 -42 113 -84 123 -92 9 -7 17 -10 17 -6 0 4 4 2 8 -4 10 -17 274 -184
290 -184 6 0 12 -3 12 -7 0 -5 10 -13 23 -19 24 -12 186 -97 257 -136 25 -13
63 -31 85 -40 22 -9 67 -29 100 -44 33 -15 62 -28 65 -29 3 -1 19 -7 35 -14
17 -6 55 -21 85 -32 30 -12 69 -27 85 -34 17 -8 44 -17 60 -21 17 -4 35 -10
40 -14 6 -4 33 -13 60 -20 28 -7 56 -18 64 -24 8 -6 15 -10 15 -8 1 5 49 -7
126 -30 36 -11 74 -21 85 -24 11 -2 29 -6 40 -8 11 -2 58 -13 105 -24 75 -18
126 -27 195 -38 11 -2 34 -6 50 -10 17 -3 46 -8 65 -9 19 -2 35 -4 35 -5 0 -2
9 -4 20 -5 281 -34 366 -39 650 -39 236 0 520 12 520 24 0 0 23 3 52 5 29 3
65 7 80 10 15 3 48 8 73 11 48 5 85 11 85 15 0 1 9 3 21 4 11 1 38 5 60 10 21
4 50 9 63 11 12 3 53 12 90 21 36 8 75 17 86 19 11 1 22 3 25 5 3 1 10 3 15 4
43 8 474 143 490 155 6 3 44 19 85 35 41 15 113 45 158 66 46 22 89 39 96 39
7 0 18 6 25 12 6 7 15 13 19 14 9 0 145 67 152 74 3 3 30 18 60 34 57 31 70
38 167 96 32 19 62 37 68 39 5 2 14 8 20 13 5 4 53 36 105 71 52 34 106 72
120 84 14 13 30 23 37 23 7 0 13 5 13 10 0 6 5 10 10 10 6 0 18 8 29 17 18 18
49 42 106 85 17 12 46 36 66 52 19 17 61 54 94 81 64 55 229 209 254 238 9 10
48 51 86 91 96 100 172 188 250 287 36 46 74 95 85 108 11 13 26 33 32 45 6
11 14 23 17 26 11 9 61 79 61 85 0 4 6 13 14 20 7 8 40 56 72 107 32 51 63 96
69 100 5 4 6 8 2 8 -5 0 0 12 11 27 10 16 33 53 50 84 67 122 128 234 131 244
2 6 19 42 36 80 31 66 40 86 81 183 9 20 20 46 25 57 40 93 120 327 114 333
-3 3 -5 1 -5 -4 0 -11 -23 -44 -52 -75 -10 -11 -15 -19 -10 -19 4 0 0 -6 -8
-13 -8 -7 -34 -37 -57 -67 -23 -30 -50 -64 -60 -75 -10 -11 -45 -52 -78 -90
-33 -39 -120 -131 -195 -205 -117 -117 -159 -157 -276 -257 -12 -10 -36 -29
-54 -43 -18 -14 -38 -30 -44 -35 -23 -22 -172 -129 -279 -201 -62 -41 -117
-79 -124 -84 -7 -6 -15 -10 -19 -10 -3 0 -18 -8 -32 -19 -25 -17 -58 -35 -189
-107 -52 -29 -185 -97 -193 -99 -3 -1 -36 -16 -75 -34 -38 -18 -117 -52 -175
-76 -135 -55 -144 -58 -150 -60 -18 -5 -173 -57 -207 -69 -22 -9 -52 -17 -65
-20 -12 -2 -35 -9 -50 -15 -16 -6 -28 -8 -28 -5 0 2 -8 0 -18 -5 -11 -6 -30
-12 -43 -15 -13 -2 -52 -12 -86 -21 -35 -9 -73 -18 -85 -20 -12 -3 -65 -13
-117 -24 -53 -11 -114 -22 -136 -26 -23 -3 -52 -7 -65 -10 -13 -3 -41 -7 -62
-10 -21 -3 -57 -8 -80 -11 -24 -3 -59 -7 -78 -9 -19 -1 -80 -7 -135 -11 -195
-17 -714 -10 -865 11 -19 3 -60 8 -90 11 -30 3 -62 7 -70 8 -8 2 -40 6 -70 11
-30 4 -64 9 -75 11 -11 2 -47 9 -80 15 -101 19 -118 22 -190 39 -27 7 -63 14
-78 16 -15 2 -37 8 -47 14 -11 6 -20 8 -20 6 0 -3 -11 -1 -26 4 -14 6 -39 12
-56 15 -17 3 -36 9 -42 13 -6 4 -13 7 -16 7 -78 12 -450 145 -615 221 -33 15
-62 28 -65 29 -17 3 -261 128 -265 136 -4 5 -10 7 -15 4 -5 -3 -11 -1 -14 4
-3 5 -25 19 -48 32 -64 33 -90 48 -123 69 -16 11 -37 23 -45 27 -8 4 -19 11
-25 15 -5 4 -53 36 -105 70 -85 55 -265 184 -297 212 -7 6 -18 16 -25 21 -133
103 -236 196 -382 341 -145 144 -177 179 -286 309 -46 55 -87 102 -92 103 -4
2 -8 8 -8 14 0 8 -64 94 -105 141 -8 9 -15 20 -15 23 0 3 -27 43 -60 90 -33
46 -60 86 -60 88 0 3 -23 42 -52 88 -91 147 -248 448 -248 476 0 7 -4 12 -10
12 -5 0 -10 7 -10 15 0 8 -4 23 -9 33 -24 48 -106 259 -113 292 -2 8 -7 18
-11 21 -4 3 -9 16 -10 27 -1 12 -5 22 -10 22 -4 0 -6 4 -3 9 3 5 -3 35 -14 67
-19 53 -47 154 -55 194 -2 8 -8 35 -15 60 -7 25 -14 55 -16 68 -6 33 -12 63
-22 102 -5 19 -9 38 -10 43 -9 66 -15 107 -18 127 -7 34 -11 71 -29 240 -13
123 -17 265 -13 501 0 26 -2 52 -6 58 -4 6 -3 11 2 11 5 0 9 14 10 31 1 54 13
197 17 221 3 12 7 46 10 73 5 51 10 83 22 145 3 19 7 44 8 55 2 11 7 40 13 65
6 25 14 60 17 79 3 19 8 38 10 41 3 4 7 25 11 46 3 22 10 47 15 57 5 9 7 17 5
17 -3 0 -1 12 5 28 6 15 13 36 15 48 4 22 50 167 61 194 7 17 10 28 16 55 4
17 17 48 67 170 45 106 75 174 87 192 8 12 14 24 14 28 -1 3 20 47 46 98 26
50 50 97 52 102 2 6 7 12 10 15 3 3 15 23 26 45 11 22 30 54 42 71 13 17 23
36 23 42 0 7 4 12 9 12 5 0 13 10 17 22 4 13 24 46 45 75 22 29 39 56 39 62 0
5 5 11 12 13 6 2 9 9 7 16 -2 6 -20 -5 -40 -26z"/>
</g>
</svg>
